<?xml version="1.0" encoding="utf-8"?>
<!-- Generator: Adobe Illustrator 28.0.0, SVG Export Plug-In . SVG Version: 6.00 Build 0)  -->
<svg version="1.1" id="Layer_1" xmlns="http://www.w3.org/2000/svg" xmlns:xlink="http://www.w3.org/1999/xlink" x="0px" y="0px"
	 viewBox="0 0 268.5 465.2" style="enable-background:new 0 0 268.5 465.2;" xml:space="preserve">
<g>
	<path d="M68.6,156.4c4.3,1.1,8.8,1.3,13.2,0.7c6.3-0.8,12.2-1.4,17.2-1.3c-9.6-16-25.5-26.7-51.2-28.9c-0.7-0.1-1.2,0.6-0.9,1.3
		c2.1,5,3.6,10.1,5,14.1C54.7,150.2,60.7,154.4,68.6,156.4z"/>
	<path d="M76.1,406.4c-2.9,8.4-4.8,16.4-5.8,24c0.6,1.5,1.3,3.1,1.8,4.7c4,10.9,1.7,20.6-4.2,29.8c-0.1,0.1,0,0.3,0.1,0.3h18.7
		c0.5,0,0.9-0.5,0.9-1c-0.7-5.9-0.1-11.2,5.4-14.5c1-0.6,1.4-1.8,0.9-2.8C87.6,434.3,81.6,421,76.1,406.4z"/>
	<path d="M185.4,388.1c-10.4-7.9-16.2-18.6-12.8-34.8c-1.9-0.9-3.4-2.9-4-7.4c-13.4-1-25,1.7-34.8,7.9c-1.7,1.1-2.7,3-2.6,5
		c0.4,23.8,18.3,28.3,32.4,33.6c0.5,0.2,0.8,0.8,0.7,1.4c-4.2,13.9-12.5,28.2-23.9,42.8c-8.6,10.2-16.2,20-19.2,28.1
		c-0.1,0.2,0.1,0.5,0.4,0.5h18.1c0.5,0,1-0.4,1-0.9c0.6-7,4.1-11.5,10.6-13.4c0.5-7.4,7.5-18.2,15-29.5
		c8.3-11.9,14.8-23.6,19.7-30.7C186.4,389.9,186.2,388.7,185.4,388.1z"/>
	<path d="M268.3,446.9c-8.9-17.8-17.2-37.1-24.3-59.1c-0.3-1-1-1.9-2-2.4c-9.6-5.2-16.1-14.3-19.3-27.3c-2.1-8.5-2.8-18.7-2.2-30.5
		c9.5,4.8,18.3,3.1,26.7-2.5c-12.1-2.1-17.1-11.9-28-26.4c-15.5-20.8-39.9-23.1-65.9-33.6c-13.9-6.3-24.7-15.5-30.4-29.4
		c-3.7-10.1-4.7-22.1-1-29.5c1.4-2.1,3.1-3.5,5.6-3.8c7.3-1,15.8-0.7,21.9,1.8c3.1,1.5,5.9,1.6,8.6,0.2c7.9-4.1,13.9-9.3,16.8-16.5
		c0.3-0.8,0.1-1.8-0.5-2.4c-5.5-5.9-13.1-11.5-24.2-16.6c-1.1-5.6-3.7-10.9-10.9-15.5c-12.6-8.6-24.4-17.5-35.9-26.5
		c-15.7-12-30.4-24.6-23.5-50.9c-9.7,11.4-11.1,24.5-4.3,39.5c-3.9-2.1-7.9-4-11.9-5.5c-4.3-1.7-8.5-4-12.2-8.9
		c-14-21.5-7.1-48.4,9.8-67.4C40.6,45.1,28.5,71.8,35.3,97.5C6.6,76.8,5.9,40.7,38.3,0C12.1,19.6-5.6,48.7,1.6,78.6
		c5.6,21.1,28.7,31,52.5,40.5c14.7,5.9,27.9,11.8,38.7,17.8c7.1,7.9,23.3,18.9,40.2,30.1c-5.4,0.9-10.9,0.6-16.5-0.8
		c2.2,6.5,6.9,9.4,13.3,9.7c12.4,0.2,18.9,5,23.8,11.1c2.1,2.5,1.7,5-0.8,7.5c-0.3,0.3-0.6,0.3-1,0.2c-6.1-1.9-12.6-2.5-19.3-1.8
		c-8.6,1.2-16.8,2.2-22.5,1.9c-8.1-0.9-14.6-5-17.1-17.6c-3.3,5.7-4,14.5-2.4,19.1c2.7,7.8,7.9,10.6,14.3,10.8
		c-9.8,13.2-15.6,27.5-18,42.8C83.5,272.4,76.2,291,64.2,305c-0.2-13.3-1.2-26.6-3.1-39.7c-2.7-17.3-2.4-36.7,2-54
		c7.3-25,18.2-43.2,35.8-48.9c-6.3-1-12.9-0.9-20.1,0.7c-16.7,12.2-32,29.4-43.5,60.8c-5.5,15.5-6.3,38.2-0.3,51.4
		c8.3,18,16,33.7,19.4,44.6c-15.6-13.4-27.9-28.8-31.1-49.9c-10.2,23.8-7.3,47.6,5.1,66.1c1.9,2.8,15.2,28.1,21,52.3
		c2.7-8.7,4.7-13.2,9.3-22.8c-2.7-5.1-4.6-11.4-6.6-17.3c3.7,2.9,7.9,6.1,12.5,9.4c2.9-6.6,6.6-12.8,11.2-18.8
		c-0.4,1.1-0.9,2.2-1.3,3.3h0c-5.1,13.2-9.7,26.1-13.8,38.6c-2.5,7.6-4.8,15.1-6.9,22.5c-2,6.9-3.8,13.6-5.4,20.2
		c-4.5,16.2-9.5,30.6-15.1,41.3c-0.1,0.2,0,0.5,0.3,0.5h20c0.4,0,0.8-0.3,0.9-0.8c0.8-5.9,3.4-10.2,7.5-13c0.7-0.5,1.2-1.4,1.1-2.3
		c-0.6-9.3,0.3-18.9,2.5-28.7c1.7-7.7,4.1-15.4,7.2-23.3c5.9-15.3,14.2-31,24.1-47.1c1.7-2.6,3.3-5.2,4.8-7.9c0,0,0,0,0,0
		c14.4-25.7,19.5-53.9,14.5-84.8c17.8,31.2,10.9,69.9-15.6,101.8c9.3-1.2,21.5-7,33.4-14c10.9-6.3,22.1-8.5,33.5-5.4
		c-0.8-14.7,1.2-28.1,5.6-40.5c-2.8,19.1-0.2,37.4,7.1,52c3.5,6.4,7.1,11.6,10.9,16.1c9.1,10.9,18.8,17.4,28.5,26.5
		c12.8,11.6,21.2,25,27.2,41.2c4,10.9,1.7,20.6-4.2,29.8c-0.1,0.1,0,0.3,0.1,0.3h18.7c0.5,0,0.9-0.5,0.9-1
		c-0.7-5.9-0.1-11.2,5.4-14.5C268.4,449.1,268.8,447.9,268.3,446.9z"/>
	<path d="M123,133.6c6.4,4.3,12.1,9,17,14c1.2-20.6,18-26.3,31.5-38.7c9.4-8.5,16.3-21,17.8-30.9c2.4-19.1-4.4-34.4-17.3-45
		c16.1,31.4,7.6,55.2-16.8,74.3c11.3-32,11.1-64.5-27-98.8c17.5,25.8,26.6,50.2,21.9,72.5c-5-8.2-12.7-14-23.5-16.9
		c13.6,11.7,19,24.7,16.5,39C140.2,114.4,133.3,124.5,123,133.6z"/>
</g>
</svg>
